<?xml version="1.0" encoding="UTF-8" ?>
<!DOCTYPE svg PUBLIC "-//W3C//DTD SVG 1.1//EN" "http://www.w3.org/Graphics/SVG/1.1/DTD/svg11.dtd">
<svg width="214pt" height="218pt" viewBox="0 0 214 218" version="1.1" xmlns="http://www.w3.org/2000/svg">
<g id="#000000ff">
<path fill="#000000" opacity="1.00" d=" M 117.23 15.26 C 120.04 13.74 123.55 12.99 126.57 14.36 C 128.86 15.61 129.55 18.34 130.37 20.62 C 131.41 24.27 132.71 28.40 131.05 32.06 C 128.65 36.72 123.40 38.46 119.47 41.47 C 115.83 44.59 113.34 49.08 112.80 53.86 C 112.11 58.01 112.50 62.37 110.90 66.34 C 106.87 65.26 102.86 62.62 101.28 58.64 C 100.93 54.41 102.23 50.26 103.11 46.16 C 104.32 40.69 107.00 35.68 108.19 30.21 C 108.95 27.08 109.46 23.84 110.83 20.90 C 112.02 18.17 114.73 16.60 117.23 15.26 Z" />
<path fill="#000000" opacity="1.00" d=" M 126.38 46.27 C 133.84 44.76 141.62 44.28 149.12 45.83 C 162.28 48.54 174.48 55.57 183.57 65.44 C 193.83 77.13 200.69 92.25 200.97 107.94 C 201.53 120.69 200.07 133.62 195.62 145.63 C 190.50 160.61 182.49 174.95 170.56 185.55 C 164.79 190.68 158.31 195.00 151.39 198.40 C 146.84 200.60 142.34 203.76 137.04 203.38 C 128.05 203.01 119.12 200.86 110.09 201.70 C 102.67 202.04 95.38 203.57 88.00 204.31 C 83.60 204.90 79.42 203.16 75.41 201.61 C 63.74 197.41 53.18 190.33 44.57 181.43 C 36.55 173.72 30.00 164.41 25.91 154.04 C 15.99 131.13 16.12 104.04 26.16 81.20 C 28.33 82.57 30.53 83.91 32.60 85.42 C 39.47 90.25 47.31 93.75 55.56 95.37 C 63.30 96.81 71.36 96.08 78.88 93.82 C 85.78 91.79 92.61 88.86 98.06 84.05 C 101.92 80.65 104.48 76.04 106.24 71.26 C 108.37 71.17 110.51 71.09 112.59 70.56 C 114.70 69.45 116.40 67.54 117.32 65.34 C 119.33 59.88 118.07 53.76 120.30 48.36 C 122.11 47.15 124.30 46.76 126.38 46.27 Z" />
<path fill="#000000" opacity="1.00" d=" M 58.59 48.50 C 67.26 47.70 76.35 47.92 84.41 51.56 C 88.71 53.58 93.01 56.50 94.88 61.06 C 95.93 63.64 97.67 65.83 99.14 68.17 C 100.04 71.76 98.26 75.30 96.08 78.04 C 92.55 82.74 87.41 86.02 81.90 87.92 C 76.30 89.82 70.36 91.14 64.42 90.58 C 55.98 89.99 48.03 86.54 40.91 82.15 C 31.92 76.70 21.85 71.74 11.02 72.73 C 14.37 68.20 18.70 64.49 23.36 61.36 C 28.48 57.96 33.81 54.79 39.54 52.52 C 45.60 50.06 52.13 49.15 58.59 48.50 Z" />
</g>
</svg>
