<?xml version="1.0" encoding="UTF-8" ?>
<!DOCTYPE svg PUBLIC "-//W3C//DTD SVG 1.1//EN" "http://www.w3.org/Graphics/SVG/1.1/DTD/svg11.dtd">
<svg width="216pt" height="194pt" viewBox="0 0 216 194" version="1.1" xmlns="http://www.w3.org/2000/svg">
<g id="#000000fe">
<path fill="#000000" opacity="1.00" d=" M 0.00 0.00 L 0.63 0.00 C 0.47 0.16 0.16 0.47 0.00 0.63 L 0.00 0.00 Z" />
<path fill="#000000" opacity="1.00" d=" M 36.23 14.08 C 43.15 13.92 50.07 13.92 56.98 14.04 C 54.28 38.36 50.00 62.47 46.67 86.71 C 46.07 93.16 45.28 99.61 43.93 105.95 C 53.27 106.19 62.63 105.78 71.97 106.06 C 72.28 124.74 70.30 143.31 69.94 161.97 C 51.29 162.03 32.63 162.03 13.98 161.97 C 21.22 112.67 28.16 63.26 36.23 14.08 Z" />
<path fill="#000000" opacity="1.00" d=" M 99.05 14.04 C 105.01 14.01 110.99 13.80 116.96 14.06 C 118.06 44.72 118.29 75.41 121.15 105.94 C 127.08 106.15 133.03 105.81 138.97 106.06 C 138.73 124.74 140.27 143.35 140.97 161.97 C 119.32 162.02 97.66 162.04 76.01 161.96 C 76.28 143.30 77.74 124.68 78.07 106.03 C 83.67 105.88 89.29 106.16 94.89 105.94 C 97.26 75.33 97.97 44.69 99.05 14.04 Z" />
<path fill="#000000" opacity="1.00" d=" M 159.00 14.05 C 165.94 13.95 172.90 13.89 179.85 14.06 C 187.04 63.39 194.44 112.73 202.04 161.96 C 183.77 161.97 165.50 162.16 147.23 161.87 C 146.96 161.59 146.41 161.04 146.14 160.77 C 146.09 142.48 144.39 124.29 144.01 106.04 C 153.34 105.81 162.68 106.21 172.01 105.94 C 168.33 75.23 163.15 44.71 159.00 14.05 Z" />
<path fill="#000000" opacity="1.00" d=" M 14.07 166.03 C 32.70 165.97 51.34 165.96 69.97 166.04 C 69.99 170.67 70.17 175.33 69.93 179.97 C 51.30 180.03 32.66 180.04 14.03 179.96 C 14.00 175.31 13.83 170.67 14.07 166.03 Z" />
<path fill="#000000" opacity="1.00" d=" M 76.07 166.03 C 97.70 165.97 119.33 165.96 140.96 166.04 C 140.99 170.67 141.17 175.33 140.93 179.97 C 119.30 180.03 97.67 180.03 76.04 179.96 C 76.00 175.31 75.83 170.67 76.07 166.03 Z" />
<path fill="#000000" opacity="1.00" d=" M 146.07 166.03 C 164.70 165.97 183.34 165.96 201.97 166.04 C 201.99 170.67 202.17 175.33 201.93 179.97 C 183.30 180.03 164.66 180.04 146.03 179.96 C 146.00 175.31 145.83 170.67 146.07 166.03 Z" />
</g>
</svg>
