<?xml version="1.0" encoding="UTF-8" ?>
<!DOCTYPE svg PUBLIC "-//W3C//DTD SVG 1.1//EN" "http://www.w3.org/Graphics/SVG/1.1/DTD/svg11.dtd">
<svg width="216pt" height="214pt" viewBox="0 0 216 214" version="1.1" xmlns="http://www.w3.org/2000/svg">
<g id="#000000ff">
<path fill="#000000" opacity="1.00" d=" M 95.38 13.46 C 115.27 10.73 135.97 14.69 153.45 24.54 C 169.70 33.75 183.27 47.78 191.46 64.62 C 203.95 89.16 204.61 119.29 193.46 144.45 C 183.08 168.29 162.40 187.54 137.65 195.71 C 114.95 203.49 89.18 202.02 67.61 191.44 C 41.98 179.43 22.56 155.06 16.55 127.41 C 11.33 104.62 14.94 79.92 26.71 59.69 C 40.80 34.75 66.96 17.09 95.38 13.46 M 107.29 22.51 C 91.32 22.50 75.40 27.31 62.07 36.08 C 46.48 46.29 34.43 61.80 28.47 79.47 C 21.14 101.15 22.85 125.90 33.85 146.06 C 45.54 168.79 68.33 185.28 93.52 189.50 C 113.07 192.89 133.86 189.20 150.82 178.82 C 162.46 171.82 172.41 162.02 179.39 150.35 C 187.15 137.91 191.14 123.31 191.59 108.70 C 192.18 86.20 183.47 63.45 167.42 47.57 C 151.94 31.45 129.62 22.22 107.29 22.51 Z" />
<path fill="#000000" opacity="1.00" d=" M 103.42 42.46 C 124.22 40.83 145.42 50.33 158.23 66.76 C 165.48 75.75 170.10 86.79 171.65 98.22 C 173.97 114.76 169.59 132.18 159.55 145.55 C 152.34 155.53 142.00 163.08 130.58 167.54 C 111.34 174.95 88.47 172.35 71.57 160.45 C 56.93 150.55 46.66 134.36 44.14 116.84 C 42.28 105.23 43.78 93.12 48.27 82.26 C 57.25 60.04 79.41 43.79 103.42 42.46 M 97.96 75.00 C 93.75 78.02 89.38 80.84 85.32 84.06 C 86.16 86.70 87.15 89.28 88.35 91.77 C 92.43 89.47 95.95 86.35 100.05 84.08 C 101.16 89.32 101.45 94.68 102.08 99.99 C 103.91 115.56 105.34 131.17 107.37 146.71 C 110.90 146.62 114.41 146.29 117.90 145.72 C 117.80 143.34 117.79 140.96 117.50 138.60 C 115.43 121.13 113.69 103.62 111.71 86.13 C 111.23 81.54 110.89 76.91 109.91 72.39 C 105.84 72.58 101.43 72.55 97.96 75.00 Z" />
</g>
</svg>
