<?xml version="1.0" encoding="UTF-8" ?>
<!DOCTYPE svg PUBLIC "-//W3C//DTD SVG 1.1//EN" "http://www.w3.org/Graphics/SVG/1.1/DTD/svg11.dtd">
<svg width="198pt" height="212pt" viewBox="0 0 198 212" version="1.1" xmlns="http://www.w3.org/2000/svg">
<g id="#000000ff">
<path fill="#000000" opacity="1.00" d=" M 167.81 16.82 C 170.88 15.22 173.83 13.29 177.14 12.21 C 178.73 11.71 179.70 13.43 180.55 14.45 C 182.58 17.54 184.52 20.98 184.71 24.75 C 184.18 25.86 182.95 26.34 181.98 26.97 C 156.54 40.21 131.18 53.58 105.74 66.82 C 103.61 67.82 101.64 69.56 99.24 69.74 C 95.22 66.67 92.55 61.47 92.36 56.43 C 117.37 42.98 142.67 30.04 167.81 16.82 Z" />
<path fill="#000000" opacity="1.00" d=" M 12.30 48.80 C 13.88 43.97 17.23 39.29 21.97 37.21 C 24.65 38.70 26.81 40.91 29.19 42.80 C 50.55 60.44 71.94 78.04 93.31 95.67 C 94.36 96.69 95.76 97.56 96.19 99.05 C 95.35 102.42 92.90 105.09 90.62 107.59 C 89.25 109.08 86.83 110.96 85.02 108.99 C 62.30 90.39 39.71 71.63 17.06 52.95 C 15.44 51.61 13.76 50.31 12.30 48.80 Z" />
<path fill="#000000" opacity="1.00" d=" M 77.98 77.11 C 98.78 75.26 119.99 76.41 140.21 81.79 C 147.54 83.87 154.77 86.66 161.15 90.87 C 165.88 94.27 170.81 99.44 169.71 105.78 C 168.39 112.14 162.69 116.32 157.36 119.36 C 144.43 126.16 129.83 128.97 115.42 130.55 C 105.68 131.83 95.84 131.22 86.04 131.33 C 74.56 130.69 63.08 129.12 51.97 126.12 C 44.12 123.96 36.32 121.11 29.64 116.36 C 25.69 113.41 22.00 109.16 21.92 103.97 C 21.78 99.27 25.02 95.32 28.44 92.46 C 33.85 88.25 40.18 85.17 46.79 83.43 C 51.67 87.15 56.51 90.97 61.09 95.06 C 60.59 96.91 57.53 96.93 57.33 98.75 C 59.82 99.58 62.37 100.27 64.83 101.19 C 62.74 103.25 60.14 104.69 58.03 106.74 C 61.02 106.88 64.02 106.88 67.00 107.12 C 66.17 111.43 62.72 114.68 61.20 118.76 C 66.03 118.28 70.85 117.44 75.71 117.43 C 78.11 119.57 77.70 123.80 80.04 125.75 C 84.07 123.41 87.28 119.94 91.19 117.43 C 96.01 119.45 100.18 122.75 104.97 124.87 C 105.10 119.33 103.85 113.86 104.16 108.33 C 110.38 107.78 116.61 107.17 122.74 105.97 C 122.50 104.80 121.20 104.34 120.40 103.62 C 116.64 101.09 113.07 98.30 109.38 95.67 C 108.51 94.87 107.11 94.34 106.88 93.07 C 109.12 89.41 112.38 86.52 114.81 83.01 C 111.14 83.65 107.73 85.26 104.06 85.87 C 104.22 83.97 104.55 82.09 104.75 80.20 C 101.47 81.83 98.65 84.29 95.24 85.68 C 94.76 84.17 94.36 82.63 93.86 81.13 C 91.42 81.92 89.65 84.26 87.17 84.73 C 83.92 82.51 80.25 80.39 77.98 77.11 Z" />
<path fill="#000000" opacity="1.00" d=" M 22.01 115.01 C 24.90 117.08 27.32 119.77 30.45 121.50 C 39.46 126.94 49.68 129.93 59.92 132.01 C 71.21 134.34 82.74 135.11 94.24 135.53 C 111.54 135.20 129.04 133.82 145.61 128.51 C 152.44 126.21 159.24 123.40 164.96 118.94 C 166.53 117.56 168.21 116.31 169.85 115.02 C 169.88 133.35 169.96 151.69 169.84 170.02 C 169.98 174.19 167.51 177.83 164.55 180.53 C 158.80 185.79 151.45 188.77 144.14 191.13 C 126.67 196.65 108.17 198.14 89.93 197.73 C 73.88 197.20 57.70 195.02 42.59 189.39 C 37.29 187.45 32.24 184.73 27.88 181.13 C 24.82 178.60 22.19 175.13 21.95 171.03 C 21.60 166.36 21.86 161.68 21.79 157.00 C 21.91 143.01 21.55 129.00 22.01 115.01 Z" />
</g>
</svg>
